# xmcd
#
# Track frame offsets: 
#        150
#        23894
#        43236
#        65357
#        98468
#        112569
#        132691
#        161327
#        179300
#        193542
#        229602
#        244778
#        255499
#
# Disc length: 3627 seconds
#
# Revision: 2
# Processed by: cddbd v1.5.2PL0 Copyright (c) Steve Scherf et al.
# Submitted via: ExactAudioCopy v0.99pb4
#
DISCID=9f0e290d
DTITLE=Count Basie Orchestra - Basie Is Back - Recorded Live In Japan
DYEAR=2006
DGENRE=Jazz
TTITLE0=Corner Pocket
TTITLE1=Discommotion
TTITLE2=Blues in Hoss' Flat
TTITLE3=Segue in "C"
TTITLE4=Basie Power
TTITLE5=We're in Love Again
TTITLE6=In A Mellow Tone
TTITLE7=Body And Soul
TTITLE8=Lover Come Back To Me
TTITLE9=Whirly-Bird
TTITLE10=Jumpin' At The Woodside
TTITLE11=One O'Clock Jump
TTITLE12=April In Paris
EXTD=YEAR: 2005
EXTT0=
EXTT1=
EXTT2=
EXTT3=
EXTT4=
EXTT5=
EXTT6=
EXTT7=
EXTT8=
EXTT9=
EXTT10=
EXTT11=
EXTT12=
PLAYORDER=
